<?xml version="1.0" encoding="UTF-8" standalone="no"?>
<!DOCTYPE svg PUBLIC "-//W3C//DTD SVG 1.1//EN"
 "http://www.w3.org/Graphics/SVG/1.1/DTD/svg11.dtd">
<!-- Generated by graphviz version 2.28.0 (20110509.1545)
 -->
<!-- Title: controllers_diagram Pages: 1 -->
<svg width="1067pt" height="938pt"
 viewBox="0.00 0.00 1066.96 938.17" xmlns="http://www.w3.org/2000/svg" xmlns:xlink="http://www.w3.org/1999/xlink">
<g id="graph1" class="graph" transform="scale(1 1) rotate(0) translate(4 934.17)">
<title>controllers_diagram</title>
<polygon fill="white" stroke="white" points="-4,5 -4,-934.17 1063.96,-934.17 1063.96,5 -4,5"/>
<!-- _diagram_info -->
<g id="node1" class="node"><title>_diagram_info</title>
<text text-anchor="start" x="859.588" y="-850" font-family="Times,serif" font-size="13.00">Controllers diagram</text>
<text text-anchor="start" x="859.588" y="-834.4" font-family="Times,serif" font-size="13.00">Date: Apr 19 2013 &#45; 12:05</text>
<text text-anchor="start" x="859.588" y="-818.8" font-family="Times,serif" font-size="13.00">Migration version: 20130419013425</text>
<text text-anchor="start" x="859.588" y="-803.2" font-family="Times,serif" font-size="13.00">Generated by RailRoady 1.1.0</text>
<text text-anchor="start" x="859.588" y="-787.6" font-family="Times,serif" font-size="13.00">http://railroady.prestonlee.com</text>
</g>
<!-- ApplicationController -->
<g id="node2" class="node"><title>ApplicationController</title>
<polyline fill="none" stroke="black" points="329.547,-423.605 508.181,-423.605 "/>
<path fill="none" stroke="black" d="M508.181,-423.605C514.181,-423.605 520.181,-429.605 520.181,-435.605"/>
<polyline fill="none" stroke="black" points="520.181,-435.605 520.181,-510.005 "/>
<path fill="none" stroke="black" d="M520.181,-510.005C520.181,-516.005 514.181,-522.005 508.181,-522.005"/>
<polyline fill="none" stroke="black" points="508.181,-522.005 329.547,-522.005 "/>
<path fill="none" stroke="black" d="M329.547,-522.005C323.547,-522.005 317.547,-516.005 317.547,-510.005"/>
<polyline fill="none" stroke="black" points="317.547,-510.005 317.547,-435.605 "/>
<path fill="none" stroke="black" d="M317.547,-435.605C317.547,-429.605 323.547,-423.605 329.547,-423.605"/>
<text text-anchor="middle" x="418.864" y="-504.005" font-family="Times,serif" font-size="14.00">ApplicationController</text>
<polyline fill="none" stroke="black" points="317.547,-497.205 520.181,-497.205 "/>
<text text-anchor="start" x="325.547" y="-479.205" font-family="Times,serif" font-size="14.00">_one_time_conditions_valid_72?</text>
<polyline fill="none" stroke="black" points="317.547,-472.405 520.181,-472.405 "/>
<polyline fill="none" stroke="black" points="317.547,-448.405 520.181,-448.405 "/>
<text text-anchor="start" x="325.547" y="-430.405" font-family="Times,serif" font-size="14.00">_layout</text>
</g>
<!-- BodyProfileNutrientsController -->
<g id="node3" class="node"><title>BodyProfileNutrientsController</title>
<polyline fill="none" stroke="black" points="692.08,-467.578 861.404,-467.578 "/>
<path fill="none" stroke="black" d="M861.404,-467.578C867.404,-467.578 873.404,-473.578 873.404,-479.578"/>
<polyline fill="none" stroke="black" points="873.404,-479.578 873.404,-654.778 "/>
<path fill="none" stroke="black" d="M873.404,-654.778C873.404,-660.778 867.404,-666.778 861.404,-666.778"/>
<polyline fill="none" stroke="black" points="861.404,-666.778 692.08,-666.778 "/>
<path fill="none" stroke="black" d="M692.08,-666.778C686.08,-666.778 680.08,-660.778 680.08,-654.778"/>
<polyline fill="none" stroke="black" points="680.08,-654.778 680.08,-479.578 "/>
<path fill="none" stroke="black" d="M680.08,-479.578C680.08,-473.578 686.08,-467.578 692.08,-467.578"/>
<text text-anchor="middle" x="776.742" y="-648.778" font-family="Times,serif" font-size="14.00">BodyProfileNutrientsController</text>
<polyline fill="none" stroke="black" points="680.08,-641.978 873.404,-641.978 "/>
<text text-anchor="start" x="688.08" y="-623.978" font-family="Times,serif" font-size="14.00">create</text>
<text text-anchor="start" x="688.08" y="-607.178" font-family="Times,serif" font-size="14.00">destroy</text>
<text text-anchor="start" x="688.08" y="-590.378" font-family="Times,serif" font-size="14.00">edit</text>
<text text-anchor="start" x="688.08" y="-573.578" font-family="Times,serif" font-size="14.00">index</text>
<text text-anchor="start" x="688.08" y="-556.778" font-family="Times,serif" font-size="14.00">new</text>
<text text-anchor="start" x="688.08" y="-539.978" font-family="Times,serif" font-size="14.00">show</text>
<text text-anchor="start" x="688.08" y="-523.178" font-family="Times,serif" font-size="14.00">update</text>
<polyline fill="none" stroke="black" points="680.08,-516.378 873.404,-516.378 "/>
<polyline fill="none" stroke="black" points="680.08,-492.378 873.404,-492.378 "/>
<text text-anchor="start" x="688.08" y="-474.378" font-family="Times,serif" font-size="14.00">_layout</text>
</g>
<!-- ApplicationController&#45;&gt;BodyProfileNutrientsController -->
<g id="edge2" class="edge"><title>ApplicationController&#45;&gt;BodyProfileNutrientsController</title>
<path fill="none" stroke="black" d="M520.46,-499.596C570.469,-512.784 630.458,-528.603 679.821,-541.62"/>
</g>
<!-- BodyProfilesController -->
<g id="node4" class="node"><title>BodyProfilesController</title>
<polyline fill="none" stroke="black" points="176.24,-49.934 298.909,-49.934 "/>
<path fill="none" stroke="black" d="M298.909,-49.934C304.909,-49.934 310.909,-55.934 310.909,-61.934"/>
<polyline fill="none" stroke="black" points="310.909,-61.934 310.909,-237.134 "/>
<path fill="none" stroke="black" d="M310.909,-237.134C310.909,-243.134 304.909,-249.134 298.909,-249.134"/>
<polyline fill="none" stroke="black" points="298.909,-249.134 176.24,-249.134 "/>
<path fill="none" stroke="black" d="M176.24,-249.134C170.24,-249.134 164.24,-243.134 164.24,-237.134"/>
<polyline fill="none" stroke="black" points="164.24,-237.134 164.24,-61.934 "/>
<path fill="none" stroke="black" d="M164.24,-61.934C164.24,-55.934 170.24,-49.934 176.24,-49.934"/>
<text text-anchor="middle" x="237.575" y="-231.134" font-family="Times,serif" font-size="14.00">BodyProfilesController</text>
<polyline fill="none" stroke="black" points="164.24,-224.334 310.909,-224.334 "/>
<text text-anchor="start" x="172.24" y="-206.334" font-family="Times,serif" font-size="14.00">create</text>
<text text-anchor="start" x="172.24" y="-189.534" font-family="Times,serif" font-size="14.00">destroy</text>
<text text-anchor="start" x="172.24" y="-172.734" font-family="Times,serif" font-size="14.00">edit</text>
<text text-anchor="start" x="172.24" y="-155.934" font-family="Times,serif" font-size="14.00">index</text>
<text text-anchor="start" x="172.24" y="-139.134" font-family="Times,serif" font-size="14.00">new</text>
<text text-anchor="start" x="172.24" y="-122.334" font-family="Times,serif" font-size="14.00">show</text>
<text text-anchor="start" x="172.24" y="-105.534" font-family="Times,serif" font-size="14.00">update</text>
<polyline fill="none" stroke="black" points="164.24,-98.734 310.909,-98.734 "/>
<polyline fill="none" stroke="black" points="164.24,-74.734 310.909,-74.734 "/>
<text text-anchor="start" x="172.24" y="-56.734" font-family="Times,serif" font-size="14.00">_layout</text>
</g>
<!-- ApplicationController&#45;&gt;BodyProfilesController -->
<g id="edge4" class="edge"><title>ApplicationController&#45;&gt;BodyProfilesController</title>
<path fill="none" stroke="black" d="M391.133,-423.355C365.245,-377.192 325.846,-306.938 293.44,-249.151"/>
</g>
<!-- ComponentNutrientsController -->
<g id="node5" class="node"><title>ComponentNutrientsController</title>
<polyline fill="none" stroke="black" points="14.8247,-557.464 181.804,-557.464 "/>
<path fill="none" stroke="black" d="M181.804,-557.464C187.804,-557.464 193.804,-563.464 193.804,-569.464"/>
<polyline fill="none" stroke="black" points="193.804,-569.464 193.804,-744.664 "/>
<path fill="none" stroke="black" d="M193.804,-744.664C193.804,-750.664 187.804,-756.664 181.804,-756.664"/>
<polyline fill="none" stroke="black" points="181.804,-756.664 14.8247,-756.664 "/>
<path fill="none" stroke="black" d="M14.8247,-756.664C8.82469,-756.664 2.82469,-750.664 2.82469,-744.664"/>
<polyline fill="none" stroke="black" points="2.82469,-744.664 2.82469,-569.464 "/>
<path fill="none" stroke="black" d="M2.82469,-569.464C2.82469,-563.464 8.82469,-557.464 14.8247,-557.464"/>
<text text-anchor="middle" x="98.3144" y="-738.664" font-family="Times,serif" font-size="14.00">ComponentNutrientsController</text>
<polyline fill="none" stroke="black" points="2.82469,-731.864 193.804,-731.864 "/>
<text text-anchor="start" x="10.8247" y="-713.864" font-family="Times,serif" font-size="14.00">create</text>
<text text-anchor="start" x="10.8247" y="-697.064" font-family="Times,serif" font-size="14.00">destroy</text>
<text text-anchor="start" x="10.8247" y="-680.264" font-family="Times,serif" font-size="14.00">edit</text>
<text text-anchor="start" x="10.8247" y="-663.464" font-family="Times,serif" font-size="14.00">index</text>
<text text-anchor="start" x="10.8247" y="-646.664" font-family="Times,serif" font-size="14.00">new</text>
<text text-anchor="start" x="10.8247" y="-629.864" font-family="Times,serif" font-size="14.00">show</text>
<text text-anchor="start" x="10.8247" y="-613.064" font-family="Times,serif" font-size="14.00">update</text>
<polyline fill="none" stroke="black" points="2.82469,-606.264 193.804,-606.264 "/>
<polyline fill="none" stroke="black" points="2.82469,-582.264 193.804,-582.264 "/>
<text text-anchor="start" x="10.8247" y="-564.264" font-family="Times,serif" font-size="14.00">_layout</text>
</g>
<!-- ApplicationController&#45;&gt;ComponentNutrientsController -->
<g id="edge6" class="edge"><title>ApplicationController&#45;&gt;ComponentNutrientsController</title>
<path fill="none" stroke="black" d="M332.963,-522.183C290.124,-546.808 238.176,-576.669 194.059,-602.028"/>
</g>
<!-- ComponentsController -->
<g id="node6" class="node"><title>ComponentsController</title>
<polyline fill="none" stroke="black" points="513.18,-675.778 698.302,-675.778 "/>
<path fill="none" stroke="black" d="M698.302,-675.778C704.302,-675.778 710.302,-681.778 710.302,-687.778"/>
<polyline fill="none" stroke="black" points="710.302,-687.778 710.302,-896.578 "/>
<path fill="none" stroke="black" d="M710.302,-896.578C710.302,-902.578 704.302,-908.578 698.302,-908.578"/>
<polyline fill="none" stroke="black" points="698.302,-908.578 513.18,-908.578 "/>
<path fill="none" stroke="black" d="M513.18,-908.578C507.18,-908.578 501.18,-902.578 501.18,-896.578"/>
<polyline fill="none" stroke="black" points="501.18,-896.578 501.18,-687.778 "/>
<path fill="none" stroke="black" d="M501.18,-687.778C501.18,-681.778 507.18,-675.778 513.18,-675.778"/>
<text text-anchor="middle" x="605.741" y="-890.578" font-family="Times,serif" font-size="14.00">ComponentsController</text>
<polyline fill="none" stroke="black" points="501.18,-883.778 710.302,-883.778 "/>
<text text-anchor="start" x="509.18" y="-865.778" font-family="Times,serif" font-size="14.00">_callback_before_117</text>
<text text-anchor="start" x="509.18" y="-848.978" font-family="Times,serif" font-size="14.00">_one_time_conditions_valid_118?</text>
<text text-anchor="start" x="509.18" y="-832.178" font-family="Times,serif" font-size="14.00">create</text>
<text text-anchor="start" x="509.18" y="-815.378" font-family="Times,serif" font-size="14.00">destroy</text>
<text text-anchor="start" x="509.18" y="-798.578" font-family="Times,serif" font-size="14.00">edit</text>
<text text-anchor="start" x="509.18" y="-781.778" font-family="Times,serif" font-size="14.00">index</text>
<text text-anchor="start" x="509.18" y="-764.978" font-family="Times,serif" font-size="14.00">new</text>
<text text-anchor="start" x="509.18" y="-748.178" font-family="Times,serif" font-size="14.00">show</text>
<text text-anchor="start" x="509.18" y="-731.378" font-family="Times,serif" font-size="14.00">update</text>
<polyline fill="none" stroke="black" points="501.18,-724.578 710.302,-724.578 "/>
<polyline fill="none" stroke="black" points="501.18,-700.578 710.302,-700.578 "/>
<text text-anchor="start" x="509.18" y="-682.578" font-family="Times,serif" font-size="14.00">_layout</text>
</g>
<!-- ApplicationController&#45;&gt;ComponentsController -->
<g id="edge8" class="edge"><title>ApplicationController&#45;&gt;ComponentsController</title>
<path fill="none" stroke="black" d="M447.654,-522.007C471.56,-562.864 506.541,-622.646 537.523,-675.595"/>
</g>
<!-- IngredientsController -->
<g id="node7" class="node"><title>IngredientsController</title>
<polyline fill="none" stroke="black" points="268.106,-730.47 380.63,-730.47 "/>
<path fill="none" stroke="black" d="M380.63,-730.47C386.63,-730.47 392.63,-736.47 392.63,-742.47"/>
<polyline fill="none" stroke="black" points="392.63,-742.47 392.63,-917.67 "/>
<path fill="none" stroke="black" d="M392.63,-917.67C392.63,-923.67 386.63,-929.67 380.63,-929.67"/>
<polyline fill="none" stroke="black" points="380.63,-929.67 268.106,-929.67 "/>
<path fill="none" stroke="black" d="M268.106,-929.67C262.106,-929.67 256.106,-923.67 256.106,-917.67"/>
<polyline fill="none" stroke="black" points="256.106,-917.67 256.106,-742.47 "/>
<path fill="none" stroke="black" d="M256.106,-742.47C256.106,-736.47 262.106,-730.47 268.106,-730.47"/>
<text text-anchor="middle" x="324.368" y="-911.67" font-family="Times,serif" font-size="14.00">IngredientsController</text>
<polyline fill="none" stroke="black" points="256.106,-904.87 392.63,-904.87 "/>
<text text-anchor="start" x="264.106" y="-886.87" font-family="Times,serif" font-size="14.00">create</text>
<text text-anchor="start" x="264.106" y="-870.07" font-family="Times,serif" font-size="14.00">destroy</text>
<text text-anchor="start" x="264.106" y="-853.27" font-family="Times,serif" font-size="14.00">edit</text>
<text text-anchor="start" x="264.106" y="-836.47" font-family="Times,serif" font-size="14.00">index</text>
<text text-anchor="start" x="264.106" y="-819.67" font-family="Times,serif" font-size="14.00">new</text>
<text text-anchor="start" x="264.106" y="-802.87" font-family="Times,serif" font-size="14.00">show</text>
<text text-anchor="start" x="264.106" y="-786.07" font-family="Times,serif" font-size="14.00">update</text>
<polyline fill="none" stroke="black" points="256.106,-779.27 392.63,-779.27 "/>
<polyline fill="none" stroke="black" points="256.106,-755.27 392.63,-755.27 "/>
<text text-anchor="start" x="264.106" y="-737.27" font-family="Times,serif" font-size="14.00">_layout</text>
</g>
<!-- ApplicationController&#45;&gt;IngredientsController -->
<g id="edge10" class="edge"><title>ApplicationController&#45;&gt;IngredientsController</title>
<path fill="none" stroke="black" d="M405.824,-522.106C391.673,-575.608 368.697,-662.472 350.749,-730.329"/>
</g>
<!-- NutrientsController -->
<g id="node8" class="node"><title>NutrientsController</title>
<polyline fill="none" stroke="black" points="11.5879,-274.586 113.236,-274.586 "/>
<path fill="none" stroke="black" d="M113.236,-274.586C119.236,-274.586 125.236,-280.586 125.236,-286.586"/>
<polyline fill="none" stroke="black" points="125.236,-286.586 125.236,-461.786 "/>
<path fill="none" stroke="black" d="M125.236,-461.786C125.236,-467.786 119.236,-473.786 113.236,-473.786"/>
<polyline fill="none" stroke="black" points="113.236,-473.786 11.5879,-473.786 "/>
<path fill="none" stroke="black" d="M11.5879,-473.786C5.58789,-473.786 -0.412109,-467.786 -0.412109,-461.786"/>
<polyline fill="none" stroke="black" points="-0.412109,-461.786 -0.412109,-286.586 "/>
<path fill="none" stroke="black" d="M-0.412109,-286.586C-0.412109,-280.586 5.58789,-274.586 11.5879,-274.586"/>
<text text-anchor="middle" x="62.4121" y="-455.786" font-family="Times,serif" font-size="14.00">NutrientsController</text>
<polyline fill="none" stroke="black" points="-0.412109,-448.986 125.236,-448.986 "/>
<text text-anchor="start" x="7.58789" y="-430.986" font-family="Times,serif" font-size="14.00">create</text>
<text text-anchor="start" x="7.58789" y="-414.186" font-family="Times,serif" font-size="14.00">destroy</text>
<text text-anchor="start" x="7.58789" y="-397.386" font-family="Times,serif" font-size="14.00">edit</text>
<text text-anchor="start" x="7.58789" y="-380.586" font-family="Times,serif" font-size="14.00">index</text>
<text text-anchor="start" x="7.58789" y="-363.786" font-family="Times,serif" font-size="14.00">new</text>
<text text-anchor="start" x="7.58789" y="-346.986" font-family="Times,serif" font-size="14.00">show</text>
<text text-anchor="start" x="7.58789" y="-330.186" font-family="Times,serif" font-size="14.00">update</text>
<polyline fill="none" stroke="black" points="-0.412109,-323.386 125.236,-323.386 "/>
<polyline fill="none" stroke="black" points="-0.412109,-299.386 125.236,-299.386 "/>
<text text-anchor="start" x="7.58789" y="-281.386" font-family="Times,serif" font-size="14.00">_layout</text>
</g>
<!-- ApplicationController&#45;&gt;NutrientsController -->
<g id="edge12" class="edge"><title>ApplicationController&#45;&gt;NutrientsController</title>
<path fill="none" stroke="black" d="M317.196,-444.677C255.36,-427.569 178.344,-406.261 125.267,-391.576"/>
</g>
<!-- RecipesController -->
<g id="node9" class="node"><title>RecipesController</title>
<polyline fill="none" stroke="black" points="647.343,-170.834 832.978,-170.834 "/>
<path fill="none" stroke="black" d="M832.978,-170.834C838.978,-170.834 844.978,-176.834 844.978,-182.834"/>
<polyline fill="none" stroke="black" points="844.978,-182.834 844.978,-391.634 "/>
<path fill="none" stroke="black" d="M844.978,-391.634C844.978,-397.634 838.978,-403.634 832.978,-403.634"/>
<polyline fill="none" stroke="black" points="832.978,-403.634 647.343,-403.634 "/>
<path fill="none" stroke="black" d="M647.343,-403.634C641.343,-403.634 635.343,-397.634 635.343,-391.634"/>
<polyline fill="none" stroke="black" points="635.343,-391.634 635.343,-182.834 "/>
<path fill="none" stroke="black" d="M635.343,-182.834C635.343,-176.834 641.343,-170.834 647.343,-170.834"/>
<text text-anchor="middle" x="740.16" y="-385.634" font-family="Times,serif" font-size="14.00">RecipesController</text>
<polyline fill="none" stroke="black" points="635.343,-378.834 844.978,-378.834 "/>
<text text-anchor="start" x="643.343" y="-360.834" font-family="Times,serif" font-size="14.00">_callback_before_187</text>
<text text-anchor="start" x="643.343" y="-344.034" font-family="Times,serif" font-size="14.00">_one_time_conditions_valid_188?</text>
<text text-anchor="start" x="643.343" y="-327.234" font-family="Times,serif" font-size="14.00">create</text>
<text text-anchor="start" x="643.343" y="-310.434" font-family="Times,serif" font-size="14.00">destroy</text>
<text text-anchor="start" x="643.343" y="-293.634" font-family="Times,serif" font-size="14.00">edit</text>
<text text-anchor="start" x="643.343" y="-276.834" font-family="Times,serif" font-size="14.00">index</text>
<text text-anchor="start" x="643.343" y="-260.034" font-family="Times,serif" font-size="14.00">new</text>
<text text-anchor="start" x="643.343" y="-243.234" font-family="Times,serif" font-size="14.00">show</text>
<text text-anchor="start" x="643.343" y="-226.434" font-family="Times,serif" font-size="14.00">update</text>
<polyline fill="none" stroke="black" points="635.343,-219.634 844.978,-219.634 "/>
<polyline fill="none" stroke="black" points="635.343,-195.634 844.978,-195.634 "/>
<text text-anchor="start" x="643.343" y="-177.634" font-family="Times,serif" font-size="14.00">_layout</text>
</g>
<!-- ApplicationController&#45;&gt;RecipesController -->
<g id="edge14" class="edge"><title>ApplicationController&#45;&gt;RecipesController</title>
<path fill="none" stroke="black" d="M504.122,-423.563C544.371,-400.316 592.786,-372.353 635.264,-347.819"/>
</g>
<!-- UsersController -->
<g id="node10" class="node"><title>UsersController</title>
<polyline fill="none" stroke="black" points="423.909,-0.5 609.544,-0.5 "/>
<path fill="none" stroke="black" d="M609.544,-0.5C615.544,-0.5 621.544,-6.5 621.544,-12.5"/>
<polyline fill="none" stroke="black" points="621.544,-12.5 621.544,-221.3 "/>
<path fill="none" stroke="black" d="M621.544,-221.3C621.544,-227.3 615.544,-233.3 609.544,-233.3"/>
<polyline fill="none" stroke="black" points="609.544,-233.3 423.909,-233.3 "/>
<path fill="none" stroke="black" d="M423.909,-233.3C417.909,-233.3 411.909,-227.3 411.909,-221.3"/>
<polyline fill="none" stroke="black" points="411.909,-221.3 411.909,-12.5 "/>
<path fill="none" stroke="black" d="M411.909,-12.5C411.909,-6.5 417.909,-0.5 423.909,-0.5"/>
<text text-anchor="middle" x="516.727" y="-215.3" font-family="Times,serif" font-size="14.00">UsersController</text>
<polyline fill="none" stroke="black" points="411.909,-208.5 621.544,-208.5 "/>
<text text-anchor="start" x="419.909" y="-190.5" font-family="Times,serif" font-size="14.00">_callback_before_189</text>
<text text-anchor="start" x="419.909" y="-173.7" font-family="Times,serif" font-size="14.00">_one_time_conditions_valid_190?</text>
<text text-anchor="start" x="419.909" y="-156.9" font-family="Times,serif" font-size="14.00">create</text>
<text text-anchor="start" x="419.909" y="-140.1" font-family="Times,serif" font-size="14.00">destroy</text>
<text text-anchor="start" x="419.909" y="-123.3" font-family="Times,serif" font-size="14.00">edit</text>
<text text-anchor="start" x="419.909" y="-106.5" font-family="Times,serif" font-size="14.00">index</text>
<text text-anchor="start" x="419.909" y="-89.7" font-family="Times,serif" font-size="14.00">new</text>
<text text-anchor="start" x="419.909" y="-72.9" font-family="Times,serif" font-size="14.00">show</text>
<text text-anchor="start" x="419.909" y="-56.1" font-family="Times,serif" font-size="14.00">update</text>
<polyline fill="none" stroke="black" points="411.909,-49.3 621.544,-49.3 "/>
<polyline fill="none" stroke="black" points="411.909,-25.3 621.544,-25.3 "/>
<text text-anchor="start" x="419.909" y="-7.3" font-family="Times,serif" font-size="14.00">_layout</text>
</g>
<!-- ApplicationController&#45;&gt;UsersController -->
<g id="edge16" class="edge"><title>ApplicationController&#45;&gt;UsersController</title>
<path fill="none" stroke="black" d="M432.471,-423.318C445.916,-374.421 466.98,-297.817 484.683,-233.437"/>
</g>
</g>
</svg>
