<?xml version="1.0" encoding="UTF-8" standalone="no"?>
<!DOCTYPE svg PUBLIC "-//W3C//DTD SVG 1.1//EN"
 "http://www.w3.org/Graphics/SVG/1.1/DTD/svg11.dtd">
<!-- Generated by graphviz version 2.28.0 (20110509.1545)
 -->
<!-- Title: models_diagram Pages: 1 -->
<svg width="805pt" height="310pt"
 viewBox="0.00 0.00 805.20 310.00" xmlns="http://www.w3.org/2000/svg" xmlns:xlink="http://www.w3.org/1999/xlink">
<g id="graph1" class="graph" transform="scale(1 1) rotate(0) translate(4 306)">
<title>models_diagram</title>
<polygon fill="white" stroke="white" points="-4,5 -4,-306 802.202,-306 802.202,5 -4,5"/>
<!-- _diagram_info -->
<g id="node1" class="node"><title>_diagram_info</title>
<text text-anchor="start" x="7.31226" y="-285" font-family="Times,serif" font-size="13.00">Models diagram</text>
<text text-anchor="start" x="7.31226" y="-269.4" font-family="Times,serif" font-size="13.00">Date: Apr 19 2013 &#45; 12:05</text>
<text text-anchor="start" x="7.31226" y="-253.8" font-family="Times,serif" font-size="13.00">Migration version: 20130419013425</text>
<text text-anchor="start" x="7.31226" y="-238.2" font-family="Times,serif" font-size="13.00">Generated by RailRoady 1.1.0</text>
<text text-anchor="start" x="7.31226" y="-222.6" font-family="Times,serif" font-size="13.00">http://railroady.prestonlee.com</text>
</g>
<!-- Ability -->
<g id="node2" class="node"><title>Ability</title>
<polygon fill="none" stroke="black" points="280.255,-277 225.745,-277 225.745,-241 280.255,-241 280.255,-277"/>
<text text-anchor="middle" x="253" y="-253.4" font-family="Times,serif" font-size="14.00">Ability</text>
</g>
<!-- BodyProfile -->
<g id="node3" class="node"><title>BodyProfile</title>
<ellipse fill="none" stroke="black" cx="357" cy="-259" rx="57.5765" ry="18"/>
<text text-anchor="middle" x="357" y="-253.4" font-family="Times,serif" font-size="14.00">BodyProfile</text>
</g>
<!-- BodyProfileNutrient -->
<g id="node4" class="node"><title>BodyProfileNutrient</title>
<ellipse fill="none" stroke="black" cx="523" cy="-259" rx="89.3506" ry="18"/>
<text text-anchor="middle" x="523" y="-253.4" font-family="Times,serif" font-size="14.00">BodyProfileNutrient</text>
</g>
<!-- Component -->
<g id="node5" class="node"><title>Component</title>
<ellipse fill="none" stroke="black" cx="687" cy="-259" rx="56.1511" ry="18"/>
<text text-anchor="middle" x="687" y="-253.4" font-family="Times,serif" font-size="14.00">Component</text>
</g>
<!-- ComponentNutrient -->
<g id="node6" class="node"><title>ComponentNutrient</title>
<ellipse fill="none" stroke="black" cx="687" cy="-90" rx="87.9248" ry="18"/>
<text text-anchor="middle" x="687" y="-84.4" font-family="Times,serif" font-size="14.00">ComponentNutrient</text>
</g>
<!-- Component&#45;&gt;ComponentNutrient -->
<g id="edge4" class="edge"><title>Component&#45;&gt;ComponentNutrient</title>
<path fill="none" stroke="#4678f6" d="M687,-232.628C687,-201.933 687,-150.44 687,-118.726"/>
<ellipse fill="none" stroke="#4678f6" cx="687" cy="-236.757" rx="4" ry="4"/>
<polygon fill="#4678f6" stroke="#4678f6" points="687,-118.399 691.5,-108.399 687,-113.399 687,-108.399 687,-108.399 687,-108.399 687,-113.399 682.5,-108.399 687,-118.399 687,-118.399"/>
</g>
<!-- Ingredient -->
<g id="node7" class="node"><title>Ingredient</title>
<ellipse fill="none" stroke="black" cx="571" cy="-18" rx="50.5802" ry="18"/>
<text text-anchor="middle" x="571" y="-12.4" font-family="Times,serif" font-size="14.00">Ingredient</text>
</g>
<!-- Component&#45;&gt;Ingredient -->
<g id="edge2" class="edge"><title>Component&#45;&gt;Ingredient</title>
<path fill="none" stroke="#10ac26" d="M713.23,-236.662C754.561,-200.475 826.027,-125.766 784,-72 765.055,-47.7638 685.287,-33.0172 628.949,-25.4305"/>
<ellipse fill="none" stroke="#10ac26" cx="710.153" cy="-239.312" rx="4.00002" ry="4.00002"/>
<polygon fill="#10ac26" stroke="#10ac26" points="628.638,-25.39 619.305,-19.6343 623.68,-24.7432 618.722,-24.0965 618.722,-24.0965 618.722,-24.0965 623.68,-24.7432 618.14,-28.5587 628.638,-25.39 628.638,-25.39"/>
</g>
<!-- Nutrient -->
<g id="node8" class="node"><title>Nutrient</title>
<ellipse fill="none" stroke="black" cx="606" cy="-162" rx="43.3283" ry="18"/>
<text text-anchor="middle" x="606" y="-156.4" font-family="Times,serif" font-size="14.00">Nutrient</text>
</g>
<!-- Component&#45;&gt;Nutrient -->
<g id="edge6" class="edge"><title>Component&#45;&gt;Nutrient</title>
<path fill="none" stroke="#fee333" d="M666.167,-233.566C654.029,-219.33 638.777,-201.443 626.667,-187.24"/>
<polygon fill="#fee333" stroke="#fee333" points="666.403,-233.843 669.467,-244.372 669.647,-237.648 672.891,-241.452 672.891,-241.452 672.891,-241.452 669.647,-237.648 676.315,-238.533 666.403,-233.843 666.403,-233.843"/>
<polygon fill="#fee333" stroke="#fee333" points="626.436,-186.968 623.372,-176.438 623.192,-183.163 619.947,-179.358 619.947,-179.358 619.947,-179.358 623.192,-183.163 616.523,-182.278 626.436,-186.968 626.436,-186.968"/>
</g>
<!-- Nutrient&#45;&gt;ComponentNutrient -->
<g id="edge8" class="edge"><title>Nutrient&#45;&gt;ComponentNutrient</title>
<path fill="none" stroke="#94063a" d="M630.347,-139.959C639.677,-131.897 650.374,-122.652 659.943,-114.383"/>
<ellipse fill="none" stroke="#94063a" cx="627.003" cy="-142.849" rx="4.00002" ry="4.00002"/>
<polygon fill="#94063a" stroke="#94063a" points="660.093,-114.253 670.602,-111.119 663.877,-110.983 667.66,-107.714 667.66,-107.714 667.66,-107.714 663.877,-110.983 664.717,-104.309 660.093,-114.253 660.093,-114.253"/>
</g>
<!-- Nutrient&#45;&gt;Ingredient -->
<g id="edge10" class="edge"><title>Nutrient&#45;&gt;Ingredient</title>
<path fill="none" stroke="#fec62b" d="M597.461,-134.274C594.913,-125.902 592.213,-116.603 590,-108 584.72,-87.4721 579.756,-64.0177 576.227,-46.3415"/>
<polygon fill="#fec62b" stroke="#fec62b" points="597.489,-134.364 596.151,-145.248 598.969,-139.14 600.45,-143.915 600.45,-143.915 600.45,-143.915 598.969,-139.14 604.748,-142.583 597.489,-134.364 597.489,-134.364"/>
<polygon fill="#fec62b" stroke="#fec62b" points="576.154,-45.9722 578.64,-35.2919 575.19,-41.0662 574.225,-36.1601 574.225,-36.1601 574.225,-36.1601 575.19,-41.0662 569.809,-37.0283 576.154,-45.9722 576.154,-45.9722"/>
</g>
<!-- Recipe -->
<g id="node9" class="node"><title>Recipe</title>
<ellipse fill="none" stroke="black" cx="505" cy="-90" rx="37.2739" ry="18"/>
<text text-anchor="middle" x="505" y="-84.4" font-family="Times,serif" font-size="14.00">Recipe</text>
</g>
<!-- Nutrient&#45;&gt;Recipe -->
<g id="edge12" class="edge"><title>Nutrient&#45;&gt;Recipe</title>
<path fill="none" stroke="#0a117e" d="M575.921,-140.153C562.535,-130.875 546.845,-120.002 533.632,-110.844"/>
<polygon fill="#0a117e" stroke="#0a117e" points="576.361,-140.458 582.017,-149.853 580.471,-143.307 584.58,-146.155 584.58,-146.155 584.58,-146.155 580.471,-143.307 587.144,-142.456 576.361,-140.458 576.361,-140.458"/>
<polygon fill="#0a117e" stroke="#0a117e" points="533.574,-110.804 527.919,-101.409 529.465,-107.956 525.355,-105.108 525.355,-105.108 525.355,-105.108 529.465,-107.956 522.792,-108.806 533.574,-110.804 533.574,-110.804"/>
</g>
<!-- Recipe&#45;&gt;Ingredient -->
<g id="edge14" class="edge"><title>Recipe&#45;&gt;Ingredient</title>
<path fill="none" stroke="#0672d6" d="M525.478,-67.2809C532.777,-59.5393 541.036,-50.7799 548.496,-42.8677"/>
<ellipse fill="none" stroke="#0672d6" cx="522.72" cy="-70.2055" rx="4.00002" ry="4.00002"/>
<polygon fill="#0672d6" stroke="#0672d6" points="548.765,-42.5829 558.899,-38.3941 552.195,-38.945 555.625,-35.307 555.625,-35.307 555.625,-35.307 552.195,-38.945 552.351,-32.2199 548.765,-42.5829 548.765,-42.5829"/>
</g>
<!-- User -->
<g id="node10" class="node"><title>User</title>
<ellipse fill="none" stroke="black" cx="505" cy="-162" rx="28.9087" ry="18"/>
<text text-anchor="middle" x="505" y="-156.4" font-family="Times,serif" font-size="14.00">User</text>
</g>
<!-- User&#45;&gt;Recipe -->
<g id="edge16" class="edge"><title>User&#45;&gt;Recipe</title>
<path fill="none" stroke="#fdc3eb" d="M505,-135.64C505,-130.063 505,-124.132 505,-118.476"/>
<ellipse fill="none" stroke="#fdc3eb" cx="505" cy="-139.697" rx="4" ry="4"/>
<polygon fill="#fdc3eb" stroke="#fdc3eb" points="505,-118.104 509.5,-108.104 505,-113.104 505,-108.104 505,-108.104 505,-108.104 505,-113.104 500.5,-108.104 505,-118.104 505,-118.104"/>
</g>
</g>
</svg>
