<?xml version="1.0" encoding="UTF-8" standalone="no"?>
<!DOCTYPE svg PUBLIC "-//W3C//DTD SVG 1.1//EN"
 "http://www.w3.org/Graphics/SVG/1.1/DTD/svg11.dtd">
<!-- Generated by graphviz version 2.28.0 (20110509.1545)
 -->
<!-- Title: models_diagram Pages: 1 -->
<svg width="812pt" height="826pt"
 viewBox="0.00 0.00 811.55 826.00" xmlns="http://www.w3.org/2000/svg" xmlns:xlink="http://www.w3.org/1999/xlink">
<g id="graph1" class="graph" transform="scale(1 1) rotate(0) translate(4 822)">
<title>models_diagram</title>
<polygon fill="white" stroke="white" points="-4,5 -4,-822 808.554,-822 808.554,5 -4,5"/>
<!-- _diagram_info -->
<g id="node1" class="node"><title>_diagram_info</title>
<text text-anchor="start" x="7.31226" y="-760" font-family="Times,serif" font-size="13.00">Models diagram</text>
<text text-anchor="start" x="7.31226" y="-744.4" font-family="Times,serif" font-size="13.00">Date: Apr 19 2013 &#45; 12:05</text>
<text text-anchor="start" x="7.31226" y="-728.8" font-family="Times,serif" font-size="13.00">Migration version: 20130419013425</text>
<text text-anchor="start" x="7.31226" y="-713.2" font-family="Times,serif" font-size="13.00">Generated by RailRoady 1.1.0</text>
<text text-anchor="start" x="7.31226" y="-697.6" font-family="Times,serif" font-size="13.00">http://railroady.prestonlee.com</text>
</g>
<!-- Ability -->
<g id="node2" class="node"><title>Ability</title>
<polygon fill="none" stroke="black" points="225.166,-709.2 225.166,-758.8 280.834,-758.8 280.834,-709.2 225.166,-709.2"/>
<text text-anchor="middle" x="253" y="-740.8" font-family="Times,serif" font-size="14.00">Ability</text>
<polyline fill="none" stroke="black" points="225.166,-734 280.834,-734 "/>
<text text-anchor="middle" x="253" y="-716" font-family="Times,serif" font-size="14.00"> </text>
</g>
<!-- BodyProfile -->
<g id="node3" class="node"><title>BodyProfile</title>
<polyline fill="none" stroke="black" points="310.495,-684 419.505,-684 "/>
<path fill="none" stroke="black" d="M419.505,-684C425.505,-684 431.505,-690 431.505,-696"/>
<polyline fill="none" stroke="black" points="431.505,-696 431.505,-772 "/>
<path fill="none" stroke="black" d="M431.505,-772C431.505,-778 425.505,-784 419.505,-784"/>
<polyline fill="none" stroke="black" points="419.505,-784 310.495,-784 "/>
<path fill="none" stroke="black" d="M310.495,-784C304.495,-784 298.495,-778 298.495,-772"/>
<polyline fill="none" stroke="black" points="298.495,-772 298.495,-696 "/>
<path fill="none" stroke="black" d="M298.495,-696C298.495,-690 304.495,-684 310.495,-684"/>
<text text-anchor="middle" x="365" y="-766" font-family="Times,serif" font-size="14.00">BodyProfile</text>
<polyline fill="none" stroke="black" points="298.495,-759.2 431.505,-759.2 "/>
<text text-anchor="start" x="306.495" y="-741.2" font-family="Times,serif" font-size="14.00">id :integer</text>
<text text-anchor="start" x="306.495" y="-724.4" font-family="Times,serif" font-size="14.00">name :string</text>
<text text-anchor="start" x="306.495" y="-707.6" font-family="Times,serif" font-size="14.00">created_at :datetime</text>
<text text-anchor="start" x="306.495" y="-690.8" font-family="Times,serif" font-size="14.00">updated_at :datetime</text>
</g>
<!-- BodyProfileNutrient -->
<g id="node4" class="node"><title>BodyProfileNutrient</title>
<polyline fill="none" stroke="black" points="461.836,-667.2 608.164,-667.2 "/>
<path fill="none" stroke="black" d="M608.164,-667.2C614.164,-667.2 620.164,-673.2 620.164,-679.2"/>
<polyline fill="none" stroke="black" points="620.164,-679.2 620.164,-788.8 "/>
<path fill="none" stroke="black" d="M620.164,-788.8C620.164,-794.8 614.164,-800.8 608.164,-800.8"/>
<polyline fill="none" stroke="black" points="608.164,-800.8 461.836,-800.8 "/>
<path fill="none" stroke="black" d="M461.836,-800.8C455.836,-800.8 449.836,-794.8 449.836,-788.8"/>
<polyline fill="none" stroke="black" points="449.836,-788.8 449.836,-679.2 "/>
<path fill="none" stroke="black" d="M449.836,-679.2C449.836,-673.2 455.836,-667.2 461.836,-667.2"/>
<text text-anchor="middle" x="535" y="-782.8" font-family="Times,serif" font-size="14.00">BodyProfileNutrient</text>
<polyline fill="none" stroke="black" points="449.836,-776 620.164,-776 "/>
<text text-anchor="start" x="457.836" y="-758" font-family="Times,serif" font-size="14.00">id :integer</text>
<text text-anchor="start" x="457.836" y="-741.2" font-family="Times,serif" font-size="14.00">body_profile_id :integer</text>
<text text-anchor="start" x="457.836" y="-724.4" font-family="Times,serif" font-size="14.00">nutrient_id :integer</text>
<text text-anchor="start" x="457.836" y="-707.6" font-family="Times,serif" font-size="14.00">daily_requirement :decimal</text>
<text text-anchor="start" x="457.836" y="-690.8" font-family="Times,serif" font-size="14.00">created_at :datetime</text>
<text text-anchor="start" x="457.836" y="-674" font-family="Times,serif" font-size="14.00">updated_at :datetime</text>
</g>
<!-- Component -->
<g id="node5" class="node"><title>Component</title>
<polyline fill="none" stroke="black" points="650.212,-650.4 767.788,-650.4 "/>
<path fill="none" stroke="black" d="M767.788,-650.4C773.788,-650.4 779.788,-656.4 779.788,-662.4"/>
<polyline fill="none" stroke="black" points="779.788,-662.4 779.788,-805.6 "/>
<path fill="none" stroke="black" d="M779.788,-805.6C779.788,-811.6 773.788,-817.6 767.788,-817.6"/>
<polyline fill="none" stroke="black" points="767.788,-817.6 650.212,-817.6 "/>
<path fill="none" stroke="black" d="M650.212,-817.6C644.212,-817.6 638.212,-811.6 638.212,-805.6"/>
<polyline fill="none" stroke="black" points="638.212,-805.6 638.212,-662.4 "/>
<path fill="none" stroke="black" d="M638.212,-662.4C638.212,-656.4 644.212,-650.4 650.212,-650.4"/>
<text text-anchor="middle" x="709" y="-799.6" font-family="Times,serif" font-size="14.00">Component</text>
<polyline fill="none" stroke="black" points="638.212,-792.8 779.788,-792.8 "/>
<text text-anchor="start" x="646.212" y="-774.8" font-family="Times,serif" font-size="14.00">id :integer</text>
<text text-anchor="start" x="646.212" y="-758" font-family="Times,serif" font-size="14.00">name :string</text>
<text text-anchor="start" x="646.212" y="-741.2" font-family="Times,serif" font-size="14.00">url :text</text>
<text text-anchor="start" x="646.212" y="-724.4" font-family="Times,serif" font-size="14.00">unit :string</text>
<text text-anchor="start" x="646.212" y="-707.6" font-family="Times,serif" font-size="14.00">created_at :datetime</text>
<text text-anchor="start" x="646.212" y="-690.8" font-family="Times,serif" font-size="14.00">updated_at :datetime</text>
<text text-anchor="start" x="646.212" y="-674" font-family="Times,serif" font-size="14.00">total_amount :decimal</text>
<text text-anchor="start" x="646.212" y="-657.2" font-family="Times,serif" font-size="14.00">price :decimal</text>
</g>
<!-- ComponentNutrient -->
<g id="node6" class="node"><title>ComponentNutrient</title>
<polyline fill="none" stroke="black" points="618.822,-173.2 737.178,-173.2 "/>
<path fill="none" stroke="black" d="M737.178,-173.2C743.178,-173.2 749.178,-179.2 749.178,-185.2"/>
<polyline fill="none" stroke="black" points="749.178,-185.2 749.178,-294.8 "/>
<path fill="none" stroke="black" d="M749.178,-294.8C749.178,-300.8 743.178,-306.8 737.178,-306.8"/>
<polyline fill="none" stroke="black" points="737.178,-306.8 618.822,-306.8 "/>
<path fill="none" stroke="black" d="M618.822,-306.8C612.822,-306.8 606.822,-300.8 606.822,-294.8"/>
<polyline fill="none" stroke="black" points="606.822,-294.8 606.822,-185.2 "/>
<path fill="none" stroke="black" d="M606.822,-185.2C606.822,-179.2 612.822,-173.2 618.822,-173.2"/>
<text text-anchor="middle" x="678" y="-288.8" font-family="Times,serif" font-size="14.00">ComponentNutrient</text>
<polyline fill="none" stroke="black" points="606.822,-282 749.178,-282 "/>
<text text-anchor="start" x="614.822" y="-264" font-family="Times,serif" font-size="14.00">id :integer</text>
<text text-anchor="start" x="614.822" y="-247.2" font-family="Times,serif" font-size="14.00">component_id :integer</text>
<text text-anchor="start" x="614.822" y="-230.4" font-family="Times,serif" font-size="14.00">nutrient_id :integer</text>
<text text-anchor="start" x="614.822" y="-213.6" font-family="Times,serif" font-size="14.00">amount :decimal</text>
<text text-anchor="start" x="614.822" y="-196.8" font-family="Times,serif" font-size="14.00">created_at :datetime</text>
<text text-anchor="start" x="614.822" y="-180" font-family="Times,serif" font-size="14.00">updated_at :datetime</text>
</g>
<!-- Component&#45;&gt;ComponentNutrient -->
<g id="edge4" class="edge"><title>Component&#45;&gt;ComponentNutrient</title>
<path fill="none" stroke="#5646b0" d="M705.727,-641.731C702.559,-562.84 697.046,-445.793 689,-344 688.31,-335.273 687.485,-326.14 686.601,-317.072"/>
<ellipse fill="none" stroke="#5646b0" cx="705.905" cy="-646.203" rx="4" ry="4"/>
<polygon fill="#5646b0" stroke="#5646b0" points="686.577,-316.837 690.059,-306.438 686.079,-311.862 685.581,-306.886 685.581,-306.886 685.581,-306.886 686.079,-311.862 681.104,-307.335 686.577,-316.837 686.577,-316.837"/>
</g>
<!-- Ingredient -->
<g id="node7" class="node"><title>Ingredient</title>
<polyline fill="none" stroke="black" points="519.822,-1.2 638.178,-1.2 "/>
<path fill="none" stroke="black" d="M638.178,-1.2C644.178,-1.2 650.178,-7.2 650.178,-13.2"/>
<polyline fill="none" stroke="black" points="650.178,-13.2 650.178,-122.8 "/>
<path fill="none" stroke="black" d="M650.178,-122.8C650.178,-128.8 644.178,-134.8 638.178,-134.8"/>
<polyline fill="none" stroke="black" points="638.178,-134.8 519.822,-134.8 "/>
<path fill="none" stroke="black" d="M519.822,-134.8C513.822,-134.8 507.822,-128.8 507.822,-122.8"/>
<polyline fill="none" stroke="black" points="507.822,-122.8 507.822,-13.2 "/>
<path fill="none" stroke="black" d="M507.822,-13.2C507.822,-7.2 513.822,-1.2 519.822,-1.2"/>
<text text-anchor="middle" x="579" y="-116.8" font-family="Times,serif" font-size="14.00">Ingredient</text>
<polyline fill="none" stroke="black" points="507.822,-110 650.178,-110 "/>
<text text-anchor="start" x="515.822" y="-92" font-family="Times,serif" font-size="14.00">id :integer</text>
<text text-anchor="start" x="515.822" y="-75.2" font-family="Times,serif" font-size="14.00">recipe_id :integer</text>
<text text-anchor="start" x="515.822" y="-58.4" font-family="Times,serif" font-size="14.00">component_id :integer</text>
<text text-anchor="start" x="515.822" y="-41.6" font-family="Times,serif" font-size="14.00">amount :decimal</text>
<text text-anchor="start" x="515.822" y="-24.8" font-family="Times,serif" font-size="14.00">created_at :datetime</text>
<text text-anchor="start" x="515.822" y="-8" font-family="Times,serif" font-size="14.00">updated_at :datetime</text>
</g>
<!-- Component&#45;&gt;Ingredient -->
<g id="edge2" class="edge"><title>Component&#45;&gt;Ingredient</title>
<path fill="none" stroke="#f8a995" d="M747.126,-642.386C789.963,-525.344 843.13,-319.203 758,-172 736.654,-135.09 696.513,-110.245 659.645,-94.221"/>
<ellipse fill="none" stroke="#f8a995" cx="745.709" cy="-646.213" rx="4.00001" ry="4.00001"/>
<polygon fill="#f8a995" stroke="#f8a995" points="659.581,-94.1943 652.092,-86.1837 654.968,-92.2647 650.355,-90.3351 650.355,-90.3351 650.355,-90.3351 654.968,-92.2647 648.619,-94.4866 659.581,-94.1943 659.581,-94.1943"/>
</g>
<!-- Nutrient -->
<g id="node8" class="node"><title>Nutrient</title>
<polyline fill="none" stroke="black" points="559.495,-412.2 668.505,-412.2 "/>
<path fill="none" stroke="black" d="M668.505,-412.2C674.505,-412.2 680.505,-418.2 680.505,-424.2"/>
<polyline fill="none" stroke="black" points="680.505,-424.2 680.505,-533.8 "/>
<path fill="none" stroke="black" d="M680.505,-533.8C680.505,-539.8 674.505,-545.8 668.505,-545.8"/>
<polyline fill="none" stroke="black" points="668.505,-545.8 559.495,-545.8 "/>
<path fill="none" stroke="black" d="M559.495,-545.8C553.495,-545.8 547.495,-539.8 547.495,-533.8"/>
<polyline fill="none" stroke="black" points="547.495,-533.8 547.495,-424.2 "/>
<path fill="none" stroke="black" d="M547.495,-424.2C547.495,-418.2 553.495,-412.2 559.495,-412.2"/>
<text text-anchor="middle" x="614" y="-527.8" font-family="Times,serif" font-size="14.00">Nutrient</text>
<polyline fill="none" stroke="black" points="547.495,-521 680.505,-521 "/>
<text text-anchor="start" x="555.495" y="-503" font-family="Times,serif" font-size="14.00">id :integer</text>
<text text-anchor="start" x="555.495" y="-486.2" font-family="Times,serif" font-size="14.00">unit :string</text>
<text text-anchor="start" x="555.495" y="-469.4" font-family="Times,serif" font-size="14.00">name :string</text>
<text text-anchor="start" x="555.495" y="-452.6" font-family="Times,serif" font-size="14.00">created_at :datetime</text>
<text text-anchor="start" x="555.495" y="-435.8" font-family="Times,serif" font-size="14.00">updated_at :datetime</text>
<text text-anchor="start" x="555.495" y="-419" font-family="Times,serif" font-size="14.00">fda_rda :decimal</text>
</g>
<!-- Component&#45;&gt;Nutrient -->
<g id="edge6" class="edge"><title>Component&#45;&gt;Nutrient</title>
<path fill="none" stroke="#5f531d" d="M674.289,-640.559C663.831,-612.707 652.479,-582.476 642.476,-555.835"/>
<polygon fill="#5f531d" stroke="#5f531d" points="674.378,-640.797 673.681,-651.74 676.136,-645.477 677.893,-650.158 677.893,-650.158 677.893,-650.158 676.136,-645.477 682.106,-648.576 674.378,-640.797 674.378,-640.797"/>
<polygon fill="#5f531d" stroke="#5f531d" points="642.371,-555.556 643.068,-544.612 640.613,-550.875 638.855,-546.194 638.855,-546.194 638.855,-546.194 640.613,-550.875 634.643,-547.776 642.371,-555.556 642.371,-555.556"/>
</g>
<!-- Nutrient&#45;&gt;ComponentNutrient -->
<g id="edge8" class="edge"><title>Nutrient&#45;&gt;ComponentNutrient</title>
<path fill="none" stroke="#c34365" d="M633.931,-404.194C641.435,-376.404 649.977,-344.771 657.53,-316.802"/>
<ellipse fill="none" stroke="#c34365" cx="632.87" cy="-408.121" rx="4.00001" ry="4.00001"/>
<polygon fill="#c34365" stroke="#c34365" points="657.55,-316.729 664.502,-308.248 658.854,-311.901 660.157,-307.074 660.157,-307.074 660.157,-307.074 658.854,-311.901 655.813,-305.901 657.55,-316.729 657.55,-316.729"/>
</g>
<!-- Nutrient&#45;&gt;Ingredient -->
<g id="edge10" class="edge"><title>Nutrient&#45;&gt;Ingredient</title>
<path fill="none" stroke="#b65f67" d="M606.577,-401.66C603.792,-372.378 600.66,-338.645 598,-308 593.272,-253.527 588.393,-192.028 584.763,-145.057"/>
<polygon fill="#b65f67" stroke="#b65f67" points="606.597,-401.864 603.067,-412.247 607.072,-406.842 607.546,-411.819 607.546,-411.819 607.546,-411.819 607.072,-406.842 612.026,-411.392 606.597,-401.864 606.597,-401.864"/>
<polygon fill="#b65f67" stroke="#b65f67" points="584.754,-144.931 588.472,-134.614 584.369,-139.945 583.985,-134.96 583.985,-134.96 583.985,-134.96 584.369,-139.945 579.498,-135.306 584.754,-144.931 584.754,-144.931"/>
</g>
<!-- Recipe -->
<g id="node9" class="node"><title>Recipe</title>
<polyline fill="none" stroke="black" points="429.495,-181.6 538.505,-181.6 "/>
<path fill="none" stroke="black" d="M538.505,-181.6C544.505,-181.6 550.505,-187.6 550.505,-193.6"/>
<polyline fill="none" stroke="black" points="550.505,-193.6 550.505,-286.4 "/>
<path fill="none" stroke="black" d="M550.505,-286.4C550.505,-292.4 544.505,-298.4 538.505,-298.4"/>
<polyline fill="none" stroke="black" points="538.505,-298.4 429.495,-298.4 "/>
<path fill="none" stroke="black" d="M429.495,-298.4C423.495,-298.4 417.495,-292.4 417.495,-286.4"/>
<polyline fill="none" stroke="black" points="417.495,-286.4 417.495,-193.6 "/>
<path fill="none" stroke="black" d="M417.495,-193.6C417.495,-187.6 423.495,-181.6 429.495,-181.6"/>
<text text-anchor="middle" x="484" y="-280.4" font-family="Times,serif" font-size="14.00">Recipe</text>
<polyline fill="none" stroke="black" points="417.495,-273.6 550.505,-273.6 "/>
<text text-anchor="start" x="425.495" y="-255.6" font-family="Times,serif" font-size="14.00">id :integer</text>
<text text-anchor="start" x="425.495" y="-238.8" font-family="Times,serif" font-size="14.00">user_id :integer</text>
<text text-anchor="start" x="425.495" y="-222" font-family="Times,serif" font-size="14.00">name :string</text>
<text text-anchor="start" x="425.495" y="-205.2" font-family="Times,serif" font-size="14.00">created_at :datetime</text>
<text text-anchor="start" x="425.495" y="-188.4" font-family="Times,serif" font-size="14.00">updated_at :datetime</text>
</g>
<!-- Nutrient&#45;&gt;Recipe -->
<g id="edge12" class="edge"><title>Nutrient&#45;&gt;Recipe</title>
<path fill="none" stroke="#e06929" d="M572.898,-403.068C556.108,-372.458 536.846,-337.342 520.554,-307.64"/>
<polygon fill="#e06929" stroke="#e06929" points="572.978,-403.215 573.842,-414.146 575.383,-407.598 577.788,-411.982 577.788,-411.982 577.788,-411.982 575.383,-407.598 581.733,-409.818 572.978,-403.215 572.978,-403.215"/>
<polygon fill="#e06929" stroke="#e06929" points="520.408,-307.375 519.544,-296.443 518.004,-302.991 515.599,-298.607 515.599,-298.607 515.599,-298.607 518.004,-302.991 511.654,-300.772 520.408,-307.375 520.408,-307.375"/>
</g>
<!-- Recipe&#45;&gt;Ingredient -->
<g id="edge14" class="edge"><title>Recipe&#45;&gt;Ingredient</title>
<path fill="none" stroke="#4ac8d0" d="M520.121,-174.363C525.691,-164.395 531.483,-154.031 537.165,-143.863"/>
<ellipse fill="none" stroke="#4ac8d0" cx="518.114" cy="-177.954" rx="4.00002" ry="4.00002"/>
<polygon fill="#4ac8d0" stroke="#4ac8d0" points="537.244,-143.722 546.05,-137.188 539.683,-139.357 542.122,-134.993 542.122,-134.993 542.122,-134.993 539.683,-139.357 538.194,-132.797 537.244,-143.722 537.244,-143.722"/>
</g>
<!-- User -->
<g id="node10" class="node"><title>User</title>
<polyline fill="none" stroke="black" points="336.722,-345 517.278,-345 "/>
<path fill="none" stroke="black" d="M517.278,-345C523.278,-345 529.278,-351 529.278,-357"/>
<polyline fill="none" stroke="black" points="529.278,-357 529.278,-601 "/>
<path fill="none" stroke="black" d="M529.278,-601C529.278,-607 523.278,-613 517.278,-613"/>
<polyline fill="none" stroke="black" points="517.278,-613 336.722,-613 "/>
<path fill="none" stroke="black" d="M336.722,-613C330.722,-613 324.722,-607 324.722,-601"/>
<polyline fill="none" stroke="black" points="324.722,-601 324.722,-357 "/>
<path fill="none" stroke="black" d="M324.722,-357C324.722,-351 330.722,-345 336.722,-345"/>
<text text-anchor="middle" x="427" y="-595" font-family="Times,serif" font-size="14.00">User</text>
<polyline fill="none" stroke="black" points="324.722,-588.2 529.278,-588.2 "/>
<text text-anchor="start" x="332.722" y="-570.2" font-family="Times,serif" font-size="14.00">id :integer</text>
<text text-anchor="start" x="332.722" y="-553.4" font-family="Times,serif" font-size="14.00">name :string</text>
<text text-anchor="start" x="332.722" y="-536.6" font-family="Times,serif" font-size="14.00">created_at :datetime</text>
<text text-anchor="start" x="332.722" y="-519.8" font-family="Times,serif" font-size="14.00">updated_at :datetime</text>
<text text-anchor="start" x="332.722" y="-503" font-family="Times,serif" font-size="14.00">email :string</text>
<text text-anchor="start" x="332.722" y="-486.2" font-family="Times,serif" font-size="14.00">encrypted_password :string</text>
<text text-anchor="start" x="332.722" y="-469.4" font-family="Times,serif" font-size="14.00">reset_password_token :string</text>
<text text-anchor="start" x="332.722" y="-452.6" font-family="Times,serif" font-size="14.00">reset_password_sent_at :datetime</text>
<text text-anchor="start" x="332.722" y="-435.8" font-family="Times,serif" font-size="14.00">remember_created_at :datetime</text>
<text text-anchor="start" x="332.722" y="-419" font-family="Times,serif" font-size="14.00">sign_in_count :integer</text>
<text text-anchor="start" x="332.722" y="-402.2" font-family="Times,serif" font-size="14.00">current_sign_in_at :datetime</text>
<text text-anchor="start" x="332.722" y="-385.4" font-family="Times,serif" font-size="14.00">last_sign_in_at :datetime</text>
<text text-anchor="start" x="332.722" y="-368.6" font-family="Times,serif" font-size="14.00">current_sign_in_ip :string</text>
<text text-anchor="start" x="332.722" y="-351.8" font-family="Times,serif" font-size="14.00">last_sign_in_ip :string</text>
</g>
<!-- User&#45;&gt;Recipe -->
<g id="edge16" class="edge"><title>User&#45;&gt;Recipe</title>
<path fill="none" stroke="#1e1980" d="M460.914,-336.989C463.29,-327.109 465.614,-317.446 467.817,-308.288"/>
<ellipse fill="none" stroke="#1e1980" cx="459.934" cy="-341.063" rx="4.00001" ry="4.00001"/>
<polygon fill="#1e1980" stroke="#1e1980" points="467.817,-308.285 474.531,-299.615 468.987,-303.424 470.156,-298.563 470.156,-298.563 470.156,-298.563 468.987,-303.424 465.781,-297.51 467.817,-308.285 467.817,-308.285"/>
</g>
</g>
</svg>
